<svg id="visual" viewBox="0 0 900 600" width="900" height="600" xmlns="http://www.w3.org/2000/svg" xmlns:xlink="http://www.w3.org/1999/xlink" version="1.1"><rect x="0" y="0" width="900" height="600" fill="#eaf0e2"></rect><defs><linearGradient id="grad1_0" x1="33.3%" y1="0%" x2="100%" y2="100%"><stop offset="20%" stop-color="#eaf0e2" stop-opacity="1"></stop><stop offset="80%" stop-color="#eaf0e2" stop-opacity="1"></stop></linearGradient></defs><defs><linearGradient id="grad2_0" x1="0%" y1="0%" x2="66.7%" y2="100%"><stop offset="20%" stop-color="#eaf0e2" stop-opacity="1"></stop><stop offset="80%" stop-color="#eaf0e2" stop-opacity="1"></stop></linearGradient></defs><g transform="translate(900, 0)"><path d="M0 486.7C-48.6 442 -97.3 397.3 -156.9 378.8C-216.5 360.3 -287.2 368 -340.1 340.1C-393 312.3 -428.2 248.9 -449.7 186.3C-471.2 123.7 -479 61.8 -486.7 0L0 0Z" fill="#FBAE3C"></path></g><g transform="translate(0, 600)"><path d="M0 -486.7C69.2 -480.3 138.4 -473.9 180.2 -435.1C222.1 -396.4 236.5 -325.5 283.5 -283.5C330.6 -241.6 410.4 -228.7 449.7 -186.3C489 -143.8 487.9 -71.9 486.7 0L0 0Z" fill="#FBAE3C"></path></g></svg>