<svg id="visual" viewBox="0 0 900 600" width="900" height="600" xmlns="http://www.w3.org/2000/svg" xmlns:xlink="http://www.w3.org/1999/xlink" version="1.1"><rect x="0" y="0" width="900" height="600" fill="#eaf0e2"></rect><path d="M239 0L256 14.3C273 28.7 307 57.3 307.5 85.8C308 114.3 275 142.7 276.2 171.2C277.3 199.7 312.7 228.3 315.8 257C319 285.7 290 314.3 289.2 343C288.3 371.7 315.7 400.3 315.7 428.8C315.7 457.3 288.3 485.7 278.5 514.2C268.7 542.7 276.3 571.3 280.2 585.7L284 600L0 600L0 585.7C0 571.3 0 542.7 0 514.2C0 485.7 0 457.3 0 428.8C0 400.3 0 371.7 0 343C0 314.3 0 285.7 0 257C0 228.3 0 199.7 0 171.2C0 142.7 0 114.3 0 85.8C0 57.3 0 28.7 0 14.3L0 0Z" fill="#fa7268"></path><path d="M282 0L266.2 14.3C250.3 28.7 218.7 57.3 207.3 85.8C196 114.3 205 142.7 208.2 171.2C211.3 199.7 208.7 228.3 224.7 257C240.7 285.7 275.3 314.3 289.8 343C304.3 371.7 298.7 400.3 280.2 428.8C261.7 457.3 230.3 485.7 214.8 514.2C199.3 542.7 199.7 571.3 199.8 585.7L200 600L0 600L0 585.7C0 571.3 0 542.7 0 514.2C0 485.7 0 457.3 0 428.8C0 400.3 0 371.7 0 343C0 314.3 0 285.7 0 257C0 228.3 0 199.7 0 171.2C0 142.7 0 114.3 0 85.8C0 57.3 0 28.7 0 14.3L0 0Z" fill="#ef5f67"></path><path d="M235 0L230.3 14.3C225.7 28.7 216.3 57.3 206.2 85.8C196 114.3 185 142.7 181.3 171.2C177.7 199.7 181.3 228.3 178.8 257C176.3 285.7 167.7 314.3 161 343C154.3 371.7 149.7 400.3 163 428.8C176.3 457.3 207.7 485.7 220.3 514.2C233 542.7 227 571.3 224 585.7L221 600L0 600L0 585.7C0 571.3 0 542.7 0 514.2C0 485.7 0 457.3 0 428.8C0 400.3 0 371.7 0 343C0 314.3 0 285.7 0 257C0 228.3 0 199.7 0 171.2C0 142.7 0 114.3 0 85.8C0 57.3 0 28.7 0 14.3L0 0Z" fill="#e34c67"></path><path d="M126 0L132.5 14.3C139 28.7 152 57.3 151.3 85.8C150.7 114.3 136.3 142.7 124 171.2C111.7 199.7 101.3 228.3 99.8 257C98.3 285.7 105.7 314.3 109.8 343C114 371.7 115 400.3 111.7 428.8C108.3 457.3 100.7 485.7 106.5 514.2C112.3 542.7 131.7 571.3 141.3 585.7L151 600L0 600L0 585.7C0 571.3 0 542.7 0 514.2C0 485.7 0 457.3 0 428.8C0 400.3 0 371.7 0 343C0 314.3 0 285.7 0 257C0 228.3 0 199.7 0 171.2C0 142.7 0 114.3 0 85.8C0 57.3 0 28.7 0 14.3L0 0Z" fill="#d53867"></path><path d="M104 0L95.8 14.3C87.7 28.7 71.3 57.3 64.7 85.8C58 114.3 61 142.7 68 171.2C75 199.7 86 228.3 90.2 257C94.3 285.7 91.7 314.3 85.5 343C79.3 371.7 69.7 400.3 71.5 428.8C73.3 457.3 86.7 485.7 94.5 514.2C102.3 542.7 104.7 571.3 105.8 585.7L107 600L0 600L0 585.7C0 571.3 0 542.7 0 514.2C0 485.7 0 457.3 0 428.8C0 400.3 0 371.7 0 343C0 314.3 0 285.7 0 257C0 228.3 0 199.7 0 171.2C0 142.7 0 114.3 0 85.8C0 57.3 0 28.7 0 14.3L0 0Z" fill="#c62368"></path></svg>