<svg id="visual" viewBox="0 0 900 600" width="900" height="600" xmlns="http://www.w3.org/2000/svg" xmlns:xlink="http://www.w3.org/1999/xlink" version="1.1"><rect x="0" y="0" width="900" height="600" fill="#eaf0e2"></rect><path d="M0 388L21.5 394.2C43 400.3 86 412.7 128.8 420.7C171.7 428.7 214.3 432.3 257.2 431.2C300 430 343 424 385.8 411.7C428.7 399.3 471.3 380.7 514.2 371C557 361.3 600 360.7 642.8 374.5C685.7 388.3 728.3 416.7 771.2 425.8C814 435 857 425 878.5 420L900 415L900 601L878.5 601C857 601 814 601 771.2 601C728.3 601 685.7 601 642.8 601C600 601 557 601 514.2 601C471.3 601 428.7 601 385.8 601C343 601 300 601 257.2 601C214.3 601 171.7 601 128.8 601C86 601 43 601 21.5 601L0 601Z" fill="#fa7268"></path><path d="M0 456L21.5 454.7C43 453.3 86 450.7 128.8 444C171.7 437.3 214.3 426.7 257.2 429.8C300 433 343 450 385.8 449.8C428.7 449.7 471.3 432.3 514.2 422.3C557 412.3 600 409.7 642.8 408.2C685.7 406.7 728.3 406.3 771.2 406C814 405.7 857 405.3 878.5 405.2L900 405L900 601L878.5 601C857 601 814 601 771.2 601C728.3 601 685.7 601 642.8 601C600 601 557 601 514.2 601C471.3 601 428.7 601 385.8 601C343 601 300 601 257.2 601C214.3 601 171.7 601 128.8 601C86 601 43 601 21.5 601L0 601Z" fill="#ef5f67"></path><path d="M0 463L21.5 461.2C43 459.3 86 455.7 128.8 457.8C171.7 460 214.3 468 257.2 467.5C300 467 343 458 385.8 459.7C428.7 461.3 471.3 473.7 514.2 475.2C557 476.7 600 467.3 642.8 460.3C685.7 453.3 728.3 448.7 771.2 456.3C814 464 857 484 878.5 494L900 504L900 601L878.5 601C857 601 814 601 771.2 601C728.3 601 685.7 601 642.8 601C600 601 557 601 514.2 601C471.3 601 428.7 601 385.8 601C343 601 300 601 257.2 601C214.3 601 171.7 601 128.8 601C86 601 43 601 21.5 601L0 601Z" fill="#e34c67"></path><path d="M0 514L21.5 518C43 522 86 530 128.8 528.2C171.7 526.3 214.3 514.7 257.2 514.5C300 514.3 343 525.7 385.8 528.5C428.7 531.3 471.3 525.7 514.2 522.5C557 519.3 600 518.7 642.8 518.2C685.7 517.7 728.3 517.3 771.2 516.2C814 515 857 513 878.5 512L900 511L900 601L878.5 601C857 601 814 601 771.2 601C728.3 601 685.7 601 642.8 601C600 601 557 601 514.2 601C471.3 601 428.7 601 385.8 601C343 601 300 601 257.2 601C214.3 601 171.7 601 128.8 601C86 601 43 601 21.5 601L0 601Z" fill="#d53867"></path><path d="M0 537L21.5 537.7C43 538.3 86 539.7 128.8 541.7C171.7 543.7 214.3 546.3 257.2 548.5C300 550.7 343 552.3 385.8 552.3C428.7 552.3 471.3 550.7 514.2 547.3C557 544 600 539 642.8 537.8C685.7 536.7 728.3 539.3 771.2 543C814 546.7 857 551.3 878.5 553.7L900 556L900 601L878.5 601C857 601 814 601 771.2 601C728.3 601 685.7 601 642.8 601C600 601 557 601 514.2 601C471.3 601 428.7 601 385.8 601C343 601 300 601 257.2 601C214.3 601 171.7 601 128.8 601C86 601 43 601 21.5 601L0 601Z" fill="#c62368"></path></svg>