<svg width="56" height="56" viewBox="0 0 56 56" fill="none" xmlns="http://www.w3.org/2000/svg">
<path d="M37.9421 4.63403H17.6677C10.4268 4.63403 4.63416 10.4267 4.63416 17.6676V37.942C4.63416 45.1828 10.4268 50.9755 17.6677 50.9755H37.9421C45.1829 50.9755 50.9756 45.1828 50.9756 37.942V17.6676C50.9756 10.4267 45.1829 4.63403 37.9421 4.63403ZM22.0122 40.8383C22.0122 41.7072 21.4329 42.2865 20.564 42.2865H14.7713C13.9024 42.2865 13.3232 41.7072 13.3232 40.8383V23.4603C13.3232 22.5913 13.9024 22.0121 14.7713 22.0121H20.564C21.4329 22.0121 22.0122 22.5913 22.0122 23.4603V40.8383ZM17.6677 20.5639C15.2058 20.5639 13.3232 18.6813 13.3232 16.2194C13.3232 13.7575 15.2058 11.8749 17.6677 11.8749C20.1296 11.8749 22.0122 13.7575 22.0122 16.2194C22.0122 18.6813 20.1296 20.5639 17.6677 20.5639ZM42.2866 40.8383C42.2866 41.7072 41.7073 42.2865 40.8384 42.2865H36.4939C35.625 42.2865 35.0457 41.7072 35.0457 40.8383V35.7697V34.3215V31.4252C35.0457 30.2667 34.032 29.2529 32.8735 29.2529C31.7149 29.2529 30.7012 30.2667 30.7012 31.4252V34.3215V35.7697V40.8383C30.7012 41.7072 30.122 42.2865 29.2531 42.2865H24.9085C24.0396 42.2865 23.4604 41.7072 23.4604 40.8383V23.4603C23.4604 22.5913 24.0396 22.0121 24.9085 22.0121H30.7012C31.1357 22.0121 31.4253 22.1569 31.7149 22.4465C32.5839 22.1569 33.4528 22.0121 34.3217 22.0121C38.6662 22.0121 42.2866 25.6325 42.2866 29.977V40.8383Z" fill="white"/>
</svg>
