<svg id="visual" viewBox="0 0 900 600" width="900" height="600" xmlns="http://www.w3.org/2000/svg" xmlns:xlink="http://www.w3.org/1999/xlink" version="1.1"><g stroke-width="1" stroke-linejoin="bevel"><path d="M381 337L292 300L373 404Z" fill="#84bab4" stroke="#84bab4"></path><path d="M292 300L334 436L373 404Z" fill="#eaf0e2" stroke="#eaf0e2"></path><path d="M292 300L220 397L334 436Z" fill="#297ea6" stroke="#297ea6"></path><path d="M292 300L238 293L220 397Z" fill="#358ba9" stroke="#358ba9"></path><path d="M418 227L322 195L292 300Z" fill="#84bab4" stroke="#84bab4"></path><path d="M292 300L322 195L238 293Z" fill="#afd0c0" stroke="#afd0c0"></path><path d="M524 338L418 227L381 337Z" fill="#d8e5d5" stroke="#d8e5d5"></path><path d="M381 337L418 227L292 300Z" fill="#4697ac" stroke="#4697ac"></path><path d="M190 532L335 537L334 436Z" fill="#eaf0e2" stroke="#eaf0e2"></path><path d="M334 436L431 502L373 404Z" fill="#eaf0e2" stroke="#eaf0e2"></path><path d="M335 537L431 502L334 436Z" fill="#59a3ae" stroke="#59a3ae"></path><path d="M373 404L513 381L381 337Z" fill="#84bab4" stroke="#84bab4"></path><path d="M431 502L513 381L373 404Z" fill="#eaf0e2" stroke="#eaf0e2"></path><path d="M92 332L126 412L220 397Z" fill="#59a3ae" stroke="#59a3ae"></path><path d="M220 397L190 532L334 436Z" fill="#297ea6" stroke="#297ea6"></path><path d="M92 332L220 397L238 293Z" fill="#6eafb0" stroke="#6eafb0"></path><path d="M322 195L175 216L238 293Z" fill="#84bab4" stroke="#84bab4"></path><path d="M513 381L524 338L381 337Z" fill="#d8e5d5" stroke="#d8e5d5"></path><path d="M126 412L190 532L220 397Z" fill="#eaf0e2" stroke="#eaf0e2"></path><path d="M385 600L476 513L431 502Z" fill="#c4dac9" stroke="#c4dac9"></path><path d="M431 502L476 513L513 381Z" fill="#59a3ae" stroke="#59a3ae"></path><path d="M524 338L466 192L418 227Z" fill="#4697ac" stroke="#4697ac"></path><path d="M418 227L399 133L322 195Z" fill="#358ba9" stroke="#358ba9"></path><path d="M175 216L92 332L238 293Z" fill="#297ea6" stroke="#297ea6"></path><path d="M190 532L289 600L335 537Z" fill="#297ea6" stroke="#297ea6"></path><path d="M335 537L385 600L431 502Z" fill="#4697ac" stroke="#4697ac"></path><path d="M466 192L399 133L418 227Z" fill="#eaf0e2" stroke="#eaf0e2"></path><path d="M322 195L185 136L175 216Z" fill="#c4dac9" stroke="#c4dac9"></path><path d="M289 600L385 600L335 537Z" fill="#9ac5b9" stroke="#9ac5b9"></path><path d="M0 422L106 519L126 412Z" fill="#c4dac9" stroke="#c4dac9"></path><path d="M126 412L106 519L190 532Z" fill="#9ac5b9" stroke="#9ac5b9"></path><path d="M190 532L168 600L289 600Z" fill="#84bab4" stroke="#84bab4"></path><path d="M336 76L185 136L322 195Z" fill="#6eafb0" stroke="#6eafb0"></path><path d="M175 216L87 174L92 332Z" fill="#358ba9" stroke="#358ba9"></path><path d="M106 519L168 600L190 532Z" fill="#eaf0e2" stroke="#eaf0e2"></path><path d="M394 0L336 76L399 133Z" fill="#59a3ae" stroke="#59a3ae"></path><path d="M399 133L336 76L322 195Z" fill="#c4dac9" stroke="#c4dac9"></path><path d="M131 79L87 174L185 136Z" fill="#84bab4" stroke="#84bab4"></path><path d="M185 136L87 174L175 216Z" fill="#59a3ae" stroke="#59a3ae"></path><path d="M385 600L501 600L476 513Z" fill="#d8e5d5" stroke="#d8e5d5"></path><path d="M631 394L524 338L513 381Z" fill="#d8e5d5" stroke="#d8e5d5"></path><path d="M631 394L614 305L524 338Z" fill="#9ac5b9" stroke="#9ac5b9"></path><path d="M631 394L513 381L635 517Z" fill="#297ea6" stroke="#297ea6"></path><path d="M524 338L614 305L466 192Z" fill="#afd0c0" stroke="#afd0c0"></path><path d="M466 192L504 78L399 133Z" fill="#84bab4" stroke="#84bab4"></path><path d="M635 517L513 381L476 513Z" fill="#9ac5b9" stroke="#9ac5b9"></path><path d="M92 332L0 422L126 412Z" fill="#4697ac" stroke="#4697ac"></path><path d="M106 519L93 600L168 600Z" fill="#84bab4" stroke="#84bab4"></path><path d="M0 302L0 422L92 332Z" fill="#eaf0e2" stroke="#eaf0e2"></path><path d="M0 222L0 302L92 332Z" fill="#6eafb0" stroke="#6eafb0"></path><path d="M0 508L93 600L106 519Z" fill="#d8e5d5" stroke="#d8e5d5"></path><path d="M214 0L131 79L185 136Z" fill="#4697ac" stroke="#4697ac"></path><path d="M87 174L0 222L92 332Z" fill="#afd0c0" stroke="#afd0c0"></path><path d="M614 135L504 78L466 192Z" fill="#9ac5b9" stroke="#9ac5b9"></path><path d="M0 103L0 222L87 174Z" fill="#297ea6" stroke="#297ea6"></path><path d="M614 305L635 220L466 192Z" fill="#afd0c0" stroke="#afd0c0"></path><path d="M691 293L635 220L614 305Z" fill="#84bab4" stroke="#84bab4"></path><path d="M0 422L0 508L106 519Z" fill="#6eafb0" stroke="#6eafb0"></path><path d="M605 600L635 517L476 513Z" fill="#59a3ae" stroke="#59a3ae"></path><path d="M631 394L696 374L614 305Z" fill="#afd0c0" stroke="#afd0c0"></path><path d="M394 0L278 0L336 76Z" fill="#297ea6" stroke="#297ea6"></path><path d="M336 76L278 0L185 136Z" fill="#c4dac9" stroke="#c4dac9"></path><path d="M504 78L394 0L399 133Z" fill="#297ea6" stroke="#297ea6"></path><path d="M501 600L605 600L476 513Z" fill="#59a3ae" stroke="#59a3ae"></path><path d="M635 220L614 135L466 192Z" fill="#358ba9" stroke="#358ba9"></path><path d="M504 78L493 0L394 0Z" fill="#297ea6" stroke="#297ea6"></path><path d="M278 0L214 0L185 136Z" fill="#afd0c0" stroke="#afd0c0"></path><path d="M678 504L631 394L635 517Z" fill="#eaf0e2" stroke="#eaf0e2"></path><path d="M678 504L696 374L631 394Z" fill="#358ba9" stroke="#358ba9"></path><path d="M635 220L715 166L614 135Z" fill="#d8e5d5" stroke="#d8e5d5"></path><path d="M696 374L691 293L614 305Z" fill="#afd0c0" stroke="#afd0c0"></path><path d="M737 600L678 504L635 517Z" fill="#6eafb0" stroke="#6eafb0"></path><path d="M0 508L0 600L93 600Z" fill="#358ba9" stroke="#358ba9"></path><path d="M581 0L493 0L504 78Z" fill="#9ac5b9" stroke="#9ac5b9"></path><path d="M214 0L137 0L131 79Z" fill="#6eafb0" stroke="#6eafb0"></path><path d="M131 79L0 103L87 174Z" fill="#297ea6" stroke="#297ea6"></path><path d="M0 0L0 103L131 79Z" fill="#afd0c0" stroke="#afd0c0"></path><path d="M691 293L715 166L635 220Z" fill="#297ea6" stroke="#297ea6"></path><path d="M614 135L581 0L504 78Z" fill="#eaf0e2" stroke="#eaf0e2"></path><path d="M784 211L715 166L691 293Z" fill="#297ea6" stroke="#297ea6"></path><path d="M692 0L581 0L614 135Z" fill="#358ba9" stroke="#358ba9"></path><path d="M678 504L776 369L696 374Z" fill="#c4dac9" stroke="#c4dac9"></path><path d="M696 374L776 369L691 293Z" fill="#358ba9" stroke="#358ba9"></path><path d="M784 211L739 132L715 166Z" fill="#84bab4" stroke="#84bab4"></path><path d="M715 166L739 132L614 135Z" fill="#6eafb0" stroke="#6eafb0"></path><path d="M605 600L737 600L635 517Z" fill="#6eafb0" stroke="#6eafb0"></path><path d="M678 504L803 536L776 369Z" fill="#c4dac9" stroke="#c4dac9"></path><path d="M137 0L0 0L131 79Z" fill="#afd0c0" stroke="#afd0c0"></path><path d="M806 310L784 211L691 293Z" fill="#6eafb0" stroke="#6eafb0"></path><path d="M900 388L806 310L776 369Z" fill="#297ea6" stroke="#297ea6"></path><path d="M776 369L806 310L691 293Z" fill="#d8e5d5" stroke="#d8e5d5"></path><path d="M737 600L803 536L678 504Z" fill="#eaf0e2" stroke="#eaf0e2"></path><path d="M785 0L692 0L739 132Z" fill="#84bab4" stroke="#84bab4"></path><path d="M739 132L692 0L614 135Z" fill="#297ea6" stroke="#297ea6"></path><path d="M900 194L803 98L784 211Z" fill="#84bab4" stroke="#84bab4"></path><path d="M784 211L803 98L739 132Z" fill="#9ac5b9" stroke="#9ac5b9"></path><path d="M737 600L834 600L803 536Z" fill="#c4dac9" stroke="#c4dac9"></path><path d="M900 502L900 388L776 369Z" fill="#4697ac" stroke="#4697ac"></path><path d="M806 310L900 271L784 211Z" fill="#358ba9" stroke="#358ba9"></path><path d="M900 502L776 369L803 536Z" fill="#59a3ae" stroke="#59a3ae"></path><path d="M900 388L900 271L806 310Z" fill="#84bab4" stroke="#84bab4"></path><path d="M900 72L785 0L803 98Z" fill="#59a3ae" stroke="#59a3ae"></path><path d="M803 98L785 0L739 132Z" fill="#4697ac" stroke="#4697ac"></path><path d="M834 600L900 502L803 536Z" fill="#c4dac9" stroke="#c4dac9"></path><path d="M900 271L900 194L784 211Z" fill="#297ea6" stroke="#297ea6"></path><path d="M834 600L900 600L900 502Z" fill="#297ea6" stroke="#297ea6"></path><path d="M900 194L900 72L803 98Z" fill="#297ea6" stroke="#297ea6"></path><path d="M900 72L900 0L785 0Z" fill="#d8e5d5" stroke="#d8e5d5"></path></g></svg>