<svg width="57" height="56" viewBox="0 0 57 56" fill="none" xmlns="http://www.w3.org/2000/svg">
<g clip-path="url(#clip0_47_43)">
<path d="M52.7282 13.6714V43.8762C52.7282 45.8382 51.1382 47.43 49.1762 47.43H40.8816V27.2941L26.6681 37.9572L12.4546 27.2941V47.4317H4.16181C2.19983 47.4317 0.609741 45.8416 0.609741 43.8797V43.8779V13.6731C0.609741 10.7293 2.99575 8.34155 5.93959 8.34155C7.14563 8.34155 8.25782 8.74299 9.15105 9.41725L9.13715 9.40683L26.6681 22.5568L44.1991 9.40683C45.0784 8.74125 46.1906 8.34155 47.3967 8.34155C50.3405 8.34155 52.7282 10.7276 52.7282 13.6714Z" fill="white"/>
</g>
<defs>
<clipPath id="clip0_47_43">
<rect width="55.6098" height="55.6098" fill="white" transform="translate(0.609741)"/>
</clipPath>
</defs>
</svg>
