<svg width="134" height="128" viewBox="0 0 134 128" fill="none" xmlns="http://www.w3.org/2000/svg">
<ellipse cx="67" cy="64.1147" rx="66.566" ry="63.6719" fill="white"/>
<path d="M52.1858 66.6522L55.375 68.5681C55.8942 68.5681 56.1661 68.3456 56.1661 67.913C56.128 67.5034 56.0015 67.107 55.7953 66.751L48.8731 53.7595L33.5576 54.1304C33.415 54.1183 33.2715 54.1382 33.1375 54.1886C33.0035 54.2389 32.8824 54.3184 32.783 54.4214C32.6836 54.5244 32.6083 54.6482 32.5627 54.7839C32.5171 54.9195 32.5023 55.0637 32.5193 55.2058C32.5193 55.3665 32.7418 55.5766 33.1744 55.8609L36.3512 57.7769L32.9272 63.0056C32.142 64.0965 31.66 65.3761 31.5304 66.714C31.5767 67.7666 31.8962 68.789 32.4575 69.6806L42.8779 87.8515C42.6395 86.7798 42.5152 85.686 42.5071 84.5881C42.5356 82.6348 43.1421 80.7336 44.25 79.1245L52.1982 66.6522H52.1858Z" fill="#7ABF18"/>
<path d="M56.2032 56.0833L64.7942 42.7333C61.5803 35.4155 58.1686 31.7566 54.5592 31.7566C52.3836 31.7566 50.925 32.3623 50.171 33.5737L42.0374 46.5652L56.2032 56.0833Z" fill="#7ABF18"/>
<path d="M49.1944 92.1158H65.7707V74.8721H49.8001C48.4548 76.6982 47.2166 78.6009 46.0918 80.5705C45.3011 82.0692 44.8774 83.7341 44.8557 85.4285C44.8557 89.8867 46.2896 92.1158 49.1574 92.1158H49.1944Z" fill="#7ABF18"/>
<path d="M83.3482 52.8693L90.7649 40.5082C91.0047 40.095 91.1326 39.6263 91.1357 39.1485C91.1357 38.5922 90.9503 38.3079 90.5794 38.3079C90.3414 38.4348 90.088 38.5304 89.8254 38.5922L86.4261 40.0138L83.3482 33.9445C82.005 31.2085 79.2731 29.8406 75.1528 29.8406H55.9189C57.6154 30.2589 59.2259 30.97 60.6779 31.942C62.6475 33.4995 64.6582 36.4249 66.7101 40.7184L70.5421 48.7531L67.7361 50.1128C67.5961 50.1789 67.4803 50.2871 67.405 50.4224C67.3296 50.5576 67.2984 50.713 67.3158 50.8668C67.3158 51.3242 67.6125 51.5961 68.2058 51.6579L83.3976 52.894L83.3482 52.8693Z" fill="#7ABF18"/>
<path d="M90.7278 89.5447L101.47 70.0142C100.102 71.6724 98.3127 72.932 96.2903 73.6607C94.2064 74.2347 92.0474 74.489 89.8872 74.4147H77.9217V71.9425C77.9217 70.9783 77.6868 70.4962 77.2171 70.4962C77.0714 70.4848 76.9254 70.5133 76.7947 70.5786C76.664 70.6439 76.5536 70.7437 76.4754 70.8671L68.9722 83.9822L76.8215 96.0467C77.4149 96.949 77.9217 97.2828 78.3543 97.1097C78.7869 96.9367 79.0094 96.7636 79.0094 96.4175V92.3012H85.6474C86.6793 92.3885 87.7144 92.1745 88.6271 91.6852C89.5398 91.196 90.291 90.4524 90.7896 89.5447H90.7278Z" fill="#7ABF18"/>
<path d="M86.0553 71.9302H93.2C95.1834 71.8226 97.0674 71.0271 98.5276 69.6805C100.497 68.123 101.478 66.4749 101.47 64.7361C101.45 63.8797 101.174 63.0488 100.678 62.3504L92.174 49.3712L77.5508 57.8757L86.0553 71.9302Z" fill="#7ABF18"/>
</svg>
