<svg width="134" height="128" viewBox="0 0 134 128" fill="none" xmlns="http://www.w3.org/2000/svg">
<ellipse cx="67" cy="64.1147" rx="66.566" ry="63.6719" fill="#7ABF18"/>
<path fill-rule="evenodd" clip-rule="evenodd" d="M64.018 18.7255C63.7182 18.7408 63.4153 18.7858 63.1146 18.8643H63.1116C59.2026 19.8867 56.1968 22.8332 54.8563 26.5497C52.5525 26.9118 50.3847 27.8343 48.8184 29.5288V29.5318C47.1307 31.358 47.2432 34.251 49.0694 35.9388H49.0724C49.1067 35.9704 49.1437 35.997 49.1787 36.0274C49.1741 36.1329 49.1609 36.2365 49.1609 36.3433V36.3494C49.1625 37.0457 49.519 37.6624 49.7249 38.3217C47.5201 39.3709 45.9304 41.3882 45.615 43.7868C44.4739 43.8153 43.4152 44.1112 42.4676 44.5958C42.4352 44.5613 42.404 44.526 42.3701 44.4923C41.5202 43.6422 40.3658 43.1639 39.1637 43.1637C38.051 43.1639 37.0237 43.6598 36.1964 44.3949C34.9307 44.3302 33.6677 44.6454 32.7508 45.5611L32.7477 45.5642C31.838 46.4797 31.5241 47.7374 31.5874 48.998C30.7388 49.9534 30.3424 51.1847 30.4212 52.3816C27.2181 53.053 24.6723 55.4518 24.6726 58.6291C24.6722 62.1167 27.7372 64.6726 31.3748 65.0272C32.6104 67.386 35.2036 68.8689 38.0948 68.8714C38.0978 68.8714 38.1008 68.8714 38.1038 68.8714C38.722 68.8684 39.3134 68.6975 39.9108 68.5614C41.1285 71.259 42.862 74.3722 44.7677 77.6285C47.7442 82.7148 51.0533 87.8174 53.451 91.4493C52.0309 96.2109 50.5263 100.646 49.0046 103.871C48.5301 104.874 49.2619 106.029 50.3716 106.029H77.582C78.6308 106.028 79.3605 104.986 79.0022 104C76.7893 97.9277 75.3653 88.3983 74.4789 79.1845L81.7155 71.2245C81.939 71.2465 82.1649 71.2593 83.2096 71.2558C84.2543 71.2528 85.9195 70.3805 87.3197 69.1341C88.458 69.8048 89.691 70.2706 91.0044 70.2767C91.0074 70.2767 91.0104 70.2767 91.0135 70.2767C94.5601 70.2737 97.4153 67.6564 98.5424 64.1443C99.3833 64.4706 100.168 64.9907 101.073 64.9917H101.076C105.684 64.992 109.211 60.7358 109.213 55.7798C109.213 53.4781 108.347 51.3475 106.963 49.6386C107.422 48.468 107.839 47.2646 107.843 45.9834V45.9803C107.843 41.0228 104.315 36.7623 99.7058 36.7626C99.7012 36.7636 99.6952 36.7635 99.6906 36.7656C99.2467 36.7701 98.8322 36.961 98.3974 37.0461C97.2274 33.6145 94.3964 31.0831 90.9157 31.082C88.4372 31.0818 86.33 32.3342 84.9015 34.2589C84.4775 34.0218 84.0303 33.8183 83.561 33.6625C83.9391 32.7964 84.1668 31.8698 84.1692 30.9107V30.9077C84.1708 26.9483 80.8205 23.7662 76.7998 23.7655C75.5127 23.767 74.3051 24.1903 73.1977 24.8048C71.9394 23.3907 70.3526 22.3126 68.5534 21.808C67.9013 19.873 66.015 18.6232 64.018 18.7255ZM64.1863 21.7371C64.8962 21.6938 65.536 22.1456 65.7246 22.8679V22.8709C65.9405 23.6963 65.4694 24.5008 64.644 24.7163C61.9814 25.412 60.0284 27.7395 60.0203 30.4796C60.0201 30.514 60.021 30.5485 60.0233 30.583C60.0278 30.653 60.0294 30.7489 60.0469 30.8988C60.1744 32.0654 59.1499 32.8774 58.0422 32.4873C57.5622 32.3182 57.0521 32.2274 56.5275 32.2276C55.2133 32.2278 54.0424 32.7856 53.2591 33.633C52.681 34.2584 51.7507 34.2953 51.1244 33.7185C50.4989 33.1404 50.462 32.2101 51.0388 31.5838C52.2578 30.2651 54.0472 29.4556 56.0522 29.3222C56.6945 29.2799 57.2395 28.8355 57.4104 28.215C58.2713 25.0926 60.7168 22.613 63.8764 21.7874H63.8794C63.9826 21.7603 64.0849 21.7433 64.1863 21.7371ZM68.4793 24.8815C69.8197 25.3511 70.9747 26.2375 71.7211 27.4295C72.2049 28.2023 73.2575 28.3743 73.9621 27.7956C74.7446 27.1531 75.7534 26.7906 76.7995 26.7888C79.2499 26.7892 81.1466 28.6489 81.1456 30.9076C81.1426 31.9283 80.7418 32.9136 80.003 33.6771C79.034 34.6885 79.8426 36.36 81.2371 36.228C83.6792 36.2356 85.5651 38.0907 85.5655 40.3439C85.5625 41.9715 84.5578 43.4566 82.9407 44.1172C82.1172 44.4532 81.7604 45.4241 82.1701 46.2135C82.465 46.781 82.6187 47.4009 82.6189 48.0293C82.6185 50.2857 80.7226 52.1394 78.2757 52.1421C77.991 52.1376 77.7057 52.1079 77.4284 52.0505C76.3636 51.8325 75.4235 52.7757 75.645 53.8397C75.699 54.0998 75.7247 54.3624 75.7247 54.6281C75.7244 56.8858 73.8309 58.7435 71.3816 58.7439C70.3193 58.7434 69.2965 58.3721 68.5088 57.7134C67.8979 57.2021 66.9951 57.2522 66.4449 57.8287C65.631 58.6803 64.4649 59.1808 63.2356 59.1839C61.2865 59.1824 59.6121 57.9607 59.0725 56.2343C58.835 55.4756 58.0505 55.0304 57.2774 55.2157C56.9485 55.2945 56.6091 55.3352 56.2706 55.3396C53.8244 55.3366 51.9294 53.4849 51.9274 51.2297V51.2267C51.9319 50.886 51.9797 50.5493 52.0721 50.2198C52.2792 49.4808 51.8996 48.7038 51.1893 48.4129C49.576 47.7515 48.575 46.2698 48.5704 44.6455V44.6425C48.5764 42.7795 49.8873 41.1346 51.8447 40.6625C52.8422 40.4199 53.313 39.275 52.7748 38.4009C52.53 38.0039 52.3685 37.5746 52.2758 37.1313C53.4564 37.0988 54.6226 36.6145 55.4793 35.6875C55.7118 35.436 56.0482 35.2506 56.5274 35.2506C56.6968 35.2505 56.8753 35.2817 57.0382 35.3391C60.1337 36.4292 63.4147 33.8208 63.0525 30.559V30.556C63.0533 30.5635 63.048 30.507 63.0465 30.4822C63.0555 29.1532 63.9516 28.0188 65.4055 27.6389C66.86 27.2592 67.9674 26.1948 68.4793 24.8815ZM90.9155 34.1052C93.2434 34.1059 95.3999 36.0488 95.917 39.0359C96.0846 40.0057 97.1194 40.5595 98.0192 40.1608C98.5678 39.9186 99.1371 39.7956 99.711 39.7888C102.418 39.7933 104.819 42.4308 104.819 45.9802C104.814 47.1339 104.539 48.2651 104.039 49.2309C103.737 49.817 103.849 50.5315 104.317 50.9965C105.472 52.1455 106.189 53.9075 106.189 55.7796C106.186 59.3292 103.782 61.9683 101.075 61.9681C100.157 61.9671 99.255 61.6702 98.4414 61.0735C97.519 60.3968 96.2083 60.9503 96.0499 62.0833C95.6191 65.1842 93.4099 67.2457 91.0129 67.2502C90.0083 67.2441 89.0215 66.8858 88.1578 66.1695C87.5096 65.6318 86.547 65.7274 86.0172 66.3821C85.0276 67.6003 83.7299 68.2299 82.3975 68.2363C79.8477 68.2242 77.5462 65.8778 77.3221 62.5438C77.2707 61.7794 76.6553 61.1743 75.8901 61.1355C75.5169 61.1163 75.1514 61.0407 74.7977 60.9259C76.9564 59.7933 78.471 57.6255 78.6507 55.0946C82.4908 54.8931 85.6416 51.8563 85.6423 48.0293C85.642 47.3426 85.3573 46.7075 85.1581 46.054C87.1466 44.7516 88.5855 42.7534 88.5889 40.3468V40.3438C88.5886 38.7548 88.0407 37.3121 87.1274 36.1482C88.0821 34.8798 89.4519 34.1051 90.9155 34.1052ZM39.1637 46.1869C39.5652 46.187 39.9487 46.3458 40.2325 46.6298C40.8344 47.2317 40.8351 48.1614 40.2356 48.7644H40.2325C39.845 49.148 39.2905 49.2948 38.7651 49.1483C38.1687 48.9819 37.5311 49.1959 37.156 49.6886C37.1197 49.736 37.0795 49.7815 37.0379 49.8243C37.0082 49.8523 36.9755 49.8786 36.9435 49.904C36.3244 50.3972 36.1905 51.2844 36.6364 51.9383C36.7209 52.0626 36.7662 52.1994 36.7662 52.3635V56.8985C36.7662 57.3434 36.4553 57.6544 36.0104 57.6544C35.5655 57.6544 35.2545 57.3434 35.2545 56.8985V54.7698C35.2547 54.1559 34.8837 53.6029 34.3156 53.3703C34.1301 53.2945 33.9615 53.1841 33.8196 53.0425C33.2178 52.4406 33.2171 51.5109 33.8166 50.9079L33.8196 50.9048C33.866 50.8589 33.9153 50.8145 33.9673 50.775C34.46 50.3999 34.674 49.7623 34.5076 49.1659C34.361 48.6405 34.5079 48.0859 34.8915 47.6984C35.2787 47.3132 35.8355 47.1652 36.3618 47.3116C36.9546 47.4773 37.5886 47.2673 37.965 46.7803C38.0051 46.7283 38.0484 46.6789 38.0949 46.6325V46.6295C38.3787 46.3456 38.7622 46.187 39.1637 46.1869ZM45.7921 46.804H45.7951C45.8553 46.804 45.9129 46.8085 45.9723 46.8101C46.5416 48.271 47.6436 49.5014 49.0222 50.3885C48.9864 50.6641 48.9066 50.934 48.9042 51.2123C48.9041 51.2168 48.9041 51.2228 48.9042 51.2273C48.9047 54.5543 51.2722 57.326 54.4136 58.1273C54.5478 58.5624 54.871 58.9139 55.2934 59.084C56.9343 59.7176 57.8122 60.9763 57.8119 62.2402C57.812 64.0422 55.9572 65.7555 53.3359 65.7567C52.8139 65.7536 52.2979 65.6761 51.8124 65.5323C51.1155 65.3257 50.3701 65.6444 50.0379 66.2911C49.3989 67.5344 47.7784 68.501 45.8955 68.5054C44.0043 68.5024 42.3769 67.5288 41.7414 66.2792C41.3977 65.6026 40.6057 65.2856 39.8901 65.5382C39.3294 65.7364 38.7183 65.8451 38.0979 65.8482C35.9619 65.8467 34.2275 64.6269 33.7607 63.1821C33.5477 62.5256 32.9171 62.0967 32.2283 62.1398C32.2223 62.1402 32.1897 62.1429 32.1751 62.1429H32.1721C29.5508 62.1417 27.6959 60.4313 27.6961 58.6294C27.6959 56.9498 29.3171 55.3653 31.6584 55.1542C31.6674 55.1633 31.6736 55.1724 31.6819 55.1809C31.8392 55.3377 32.0535 55.4154 32.2311 55.547V56.8986C32.2311 58.9662 33.9428 60.6779 36.0103 60.6779C38.0779 60.6779 39.7896 58.9662 39.7896 56.8986V52.3636C39.7896 52.2568 39.7099 52.179 39.701 52.0742C40.6893 51.9551 41.6392 51.6313 42.3671 50.908L42.3701 50.9049C43.362 49.9128 43.7937 48.5575 43.6663 47.2497C44.2979 46.9724 45.0205 46.8058 45.7921 46.804ZM67.6053 60.6277C68.441 61.1207 69.3429 61.483 70.2921 61.6522C70.2846 61.6537 70.2757 61.6627 70.2686 61.6612C70.3594 63.9612 70.4765 66.517 70.6701 69.6065C70.7487 70.8639 72.2405 71.4792 73.1827 70.6428L76.2563 67.9117C76.9029 68.8188 77.6983 69.5806 78.6065 70.1497L71.7714 77.6698C71.4856 77.9841 71.3452 78.4042 71.3846 78.8272C72.2003 87.5497 73.558 96.3422 75.6599 103.005H52.5121C53.9255 99.6738 55.3061 95.986 56.5689 91.6884C56.6948 91.2608 56.6257 90.7995 56.3799 90.4276C53.9876 86.8154 50.4452 81.3439 47.3777 76.102C46.4257 74.4753 45.5631 72.9064 44.806 71.4429C44.8046 71.4414 44.8015 71.4384 44.8 71.4369C45.1558 71.4909 45.5168 71.5278 45.8895 71.5284H45.8925C46.4901 71.5276 47.067 71.4531 47.6197 71.3187C48.5628 72.9028 49.622 74.434 50.708 75.8449C53.4254 79.3758 56.0756 82.1091 56.6426 82.6859C57.4716 83.5284 58.9034 83.1365 59.1877 81.9891C61.0348 74.5543 62.5002 67.5431 63.5485 62.1925C65.0416 62.1142 66.4146 61.5056 67.6053 60.6277ZM73.4454 63.4827C73.8059 63.6235 74.1778 63.7422 74.5615 63.8282C74.639 64.2603 74.7473 64.6813 74.8744 65.0919L73.5665 66.2552C73.5202 65.3056 73.4862 64.4105 73.4454 63.4827ZM59.6926 65.7119C58.8868 69.5914 57.9437 73.9237 56.8877 78.3634C55.7775 77.1671 54.8316 76.2422 53.1055 73.9996C52.1462 72.7531 51.1918 71.3991 50.336 70.0344C50.2054 70.3242 51.5904 68.8291 51.8477 68.564C52.338 68.6534 52.8226 68.7766 53.324 68.7796H53.333C55.9436 68.7797 58.341 67.5845 59.6926 65.7119Z" fill="white"/>
<path fill-rule="evenodd" clip-rule="evenodd" d="M99.0761 48.6198C98.8823 48.5762 98.6817 48.5713 98.4859 48.6053C98.2901 48.6393 98.103 48.7116 97.9352 48.818C97.7673 48.9244 97.6221 49.0628 97.5078 49.2253C97.3936 49.3879 97.3125 49.5714 97.2692 49.7654C97.2692 49.7654 96.9646 51.0798 96.1709 52.3695C95.3771 53.6592 94.3258 54.7198 92.5629 54.7227C92.3644 54.723 92.1679 54.7625 91.9846 54.8388C91.8013 54.9151 91.6349 55.0268 91.4948 55.1675C91.3547 55.3081 91.2437 55.4751 91.1681 55.6586C91.0925 55.8422 91.0538 56.0388 91.0541 56.2373C91.0545 56.4358 91.094 56.6323 91.1704 56.8155C91.2467 56.9988 91.3584 57.1653 91.499 57.3054C91.6396 57.4455 91.8065 57.5565 91.99 57.6321C92.1736 57.7077 92.3703 57.7464 92.5688 57.746C95.6157 57.7415 97.6516 55.7323 98.7455 53.955C99.8393 52.1777 100.222 50.4267 100.222 50.4267C100.265 50.2329 100.27 50.0323 100.236 49.8365C100.202 49.6407 100.13 49.4536 100.024 49.2858C99.9172 49.118 99.7787 48.9728 99.6161 48.8585C99.4536 48.7442 99.2701 48.6631 99.0761 48.6198Z" fill="white"/>
<path fill-rule="evenodd" clip-rule="evenodd" d="M96.6078 89.3409C96.2069 89.341 95.8225 89.5003 95.539 89.7838C95.2556 90.0673 95.0964 90.4518 95.0964 90.8526C95.0964 91.2535 95.2556 91.638 95.539 91.9214L97.6766 94.0591C97.9601 94.3425 98.3446 94.5017 98.7455 94.5017C99.1463 94.5017 99.5308 94.3425 99.8143 94.0591C100.098 93.7756 100.257 93.3911 100.257 92.9903C100.257 92.5894 100.098 92.2049 99.8143 91.9214L97.6766 89.7838C97.3932 89.5003 97.0087 89.341 96.6078 89.3409Z" fill="white"/>
<path fill-rule="evenodd" clip-rule="evenodd" d="M90.195 82.9281C89.7941 82.9282 89.4096 83.0875 89.1261 83.371C88.8427 83.6545 88.6835 84.0389 88.6835 84.4398C88.6835 84.8407 88.8427 85.2251 89.1261 85.5086L91.2638 87.6462C91.5473 87.9297 91.9317 88.0888 92.3326 88.0888C92.7335 88.0888 93.1179 87.9297 93.4014 87.6462C93.6848 87.3627 93.844 86.9783 93.844 86.5774C93.844 86.1765 93.6848 85.7921 93.4014 85.5086L91.2638 83.371C90.9803 83.0875 90.5959 82.9282 90.195 82.9281Z" fill="white"/>
<path fill-rule="evenodd" clip-rule="evenodd" d="M92.3326 89.3409C91.9317 89.341 91.5472 89.5003 91.2638 89.7838L89.1261 91.9214C88.8427 92.2049 88.6835 92.5894 88.6835 92.9903C88.6835 93.3911 88.8427 93.7756 89.1261 94.0591C89.4096 94.3425 89.7941 94.5017 90.195 94.5017C90.5958 94.5017 90.9803 94.3425 91.2638 94.0591L93.4014 91.9214C93.6848 91.638 93.844 91.2535 93.844 90.8526C93.844 90.4518 93.6848 90.0673 93.4014 89.7838C93.1179 89.5003 92.7335 89.341 92.3326 89.3409Z" fill="white"/>
<path fill-rule="evenodd" clip-rule="evenodd" d="M98.7455 82.9281C98.3446 82.9282 97.9601 83.0875 97.6766 83.371L95.539 85.5086C95.2556 85.7921 95.0964 86.1765 95.0964 86.5774C95.0964 86.9783 95.2556 87.3627 95.539 87.6462C95.8225 87.9297 96.207 88.0888 96.6078 88.0888C97.0087 88.0888 97.3932 87.9297 97.6766 87.6462L99.8143 85.5086C100.098 85.2251 100.257 84.8407 100.257 84.4398C100.257 84.0389 100.098 83.6545 99.8143 83.371C99.5308 83.0875 99.1464 82.9282 98.7455 82.9281Z" fill="white"/>
<path fill-rule="evenodd" clip-rule="evenodd" d="M101.926 24.6711C101.525 24.6711 101.141 24.8304 100.857 25.1139C100.574 25.3974 100.415 25.7819 100.415 26.1828C100.415 26.5838 100.574 26.9682 100.857 27.2517C101.141 27.5352 101.525 27.6945 101.926 27.6945C102.327 27.6945 102.712 27.5352 102.995 27.2517C103.279 26.9682 103.438 26.5838 103.438 26.1828C103.438 25.7819 103.279 25.3974 102.995 25.1139C102.712 24.8304 102.327 24.6711 101.926 24.6711Z" fill="white"/>
<path fill-rule="evenodd" clip-rule="evenodd" d="M39.4102 90.3855C39.0092 90.3855 38.6248 90.5448 38.3413 90.8283C38.0578 91.1118 37.8985 91.4963 37.8985 91.8972C37.8985 92.2981 38.0578 92.6827 38.3413 92.9662C38.6248 93.2497 39.0092 93.4089 39.4102 93.4089C39.8111 93.4089 40.1956 93.2497 40.4791 92.9662C40.7626 92.6827 40.9218 92.2981 40.9218 91.8972C40.9218 91.4963 40.7626 91.1118 40.4791 90.8283C40.1956 90.5448 39.8111 90.3855 39.4102 90.3855Z" fill="white"/>
<path fill-rule="evenodd" clip-rule="evenodd" d="M31.3564 76.1151C30.9554 76.1151 30.5709 76.2743 30.2875 76.5578C30.004 76.8413 29.8447 77.2259 29.8447 77.6268C29.8447 78.0277 30.004 78.4122 30.2875 78.6957C30.5709 78.9792 30.9554 79.1385 31.3564 79.1385C31.7573 79.1385 32.1418 78.9792 32.4253 78.6957C32.7088 78.4122 32.868 78.0277 32.868 77.6268C32.868 77.2259 32.7088 76.8413 32.4253 76.5578C32.1418 76.2743 31.7573 76.1151 31.3564 76.1151Z" fill="white"/>
<path fill-rule="evenodd" clip-rule="evenodd" d="M106.901 72.4006C106.5 72.4006 106.115 72.5599 105.832 72.8434C105.548 73.1269 105.389 73.5114 105.389 73.9123C105.389 74.3133 105.548 74.6978 105.832 74.9813C106.115 75.2648 106.5 75.424 106.901 75.424C107.302 75.424 107.686 75.2648 107.97 74.9813C108.253 74.6978 108.412 74.3133 108.412 73.9123C108.412 73.5114 108.253 73.1269 107.97 72.8434C107.686 72.5599 107.302 72.4006 106.901 72.4006Z" fill="white"/>
<path fill-rule="evenodd" clip-rule="evenodd" d="M91.4545 101.358C91.0536 101.358 90.6691 101.518 90.3856 101.801C90.1021 102.085 89.9428 102.469 89.9428 102.87C89.9428 103.271 90.1021 103.655 90.3856 103.939C90.6691 104.222 91.0536 104.382 91.4545 104.382C91.8555 104.382 92.2399 104.222 92.5234 103.939C92.8069 103.655 92.9662 103.271 92.9662 102.87C92.9662 102.469 92.8069 102.085 92.5234 101.801C92.2399 101.518 91.8555 101.358 91.4545 101.358Z" fill="white"/>
<path fill-rule="evenodd" clip-rule="evenodd" d="M32.2223 30.5533C31.8213 30.5533 31.4369 30.7126 31.1534 30.9961C30.8699 31.2796 30.7106 31.6641 30.7106 32.065V35.0884C30.7106 35.4893 30.8699 35.8738 31.1534 36.1573C31.4369 36.4408 31.8213 36.6001 32.2223 36.6001C32.6232 36.6001 33.0077 36.4408 33.2912 36.1573C33.5747 35.8738 33.734 35.4893 33.734 35.0884V32.065C33.734 31.6641 33.5747 31.2796 33.2912 30.9961C33.0077 30.7126 32.6232 30.5533 32.2223 30.5533Z" fill="white"/>
<path fill-rule="evenodd" clip-rule="evenodd" d="M32.2223 21.4834C31.8213 21.4834 31.4369 21.6427 31.1534 21.9262C30.8699 22.2097 30.7106 22.5942 30.7106 22.9951V26.0185C30.7106 26.4194 30.8699 26.8039 31.1534 27.0874C31.4369 27.3709 31.8213 27.5302 32.2223 27.5302C32.6232 27.5302 33.0077 27.3709 33.2912 27.0874C33.5747 26.8039 33.734 26.4194 33.734 26.0185V22.9951C33.734 22.5942 33.5747 22.2097 33.2912 21.9262C33.0077 21.6427 32.6232 21.4834 32.2223 21.4834Z" fill="white"/>
<path fill-rule="evenodd" clip-rule="evenodd" d="M26.1755 27.53C25.7746 27.53 25.3901 27.6893 25.1066 27.9728C24.8231 28.2563 24.6638 28.6408 24.6638 29.0417C24.6638 29.4426 24.8231 29.8271 25.1066 30.1106C25.3901 30.3941 25.7746 30.5534 26.1755 30.5534H29.1989C29.5998 30.5534 29.9843 30.3941 30.2678 30.1106C30.5513 29.8271 30.7106 29.4426 30.7106 29.0417C30.7106 28.6408 30.5513 28.2563 30.2678 27.9728C29.9843 27.6893 29.5998 27.53 29.1989 27.53H26.1755Z" fill="white"/>
<path fill-rule="evenodd" clip-rule="evenodd" d="M35.2456 27.53C34.8447 27.53 34.4602 27.6893 34.1767 27.9728C33.8932 28.2563 33.7339 28.6408 33.7339 29.0417C33.7339 29.4426 33.8932 29.8271 34.1767 30.1106C34.4602 30.3941 34.8447 30.5534 35.2456 30.5534H38.269C38.6699 30.5534 39.0544 30.3941 39.3379 30.1106C39.6214 29.8271 39.7807 29.4426 39.7807 29.0417C39.7807 28.6408 39.6214 28.2563 39.3379 27.9728C39.0544 27.6893 38.6699 27.53 38.269 27.53H35.2456Z" fill="white"/>
</svg>
