<svg width="134" height="128" viewBox="0 0 134 128" fill="none" xmlns="http://www.w3.org/2000/svg">
<ellipse cx="67" cy="64.1147" rx="66.566" ry="63.6719" fill="#7ABF18"/>
<path d="M87.657 97.2754L86.3751 80.2826L91.4771 71.2031C92.2482 71.3637 93.0161 71.428 93.8193 71.428C100.174 71.428 105.341 66.2617 105.341 59.9067C105.341 58.2682 104.987 56.7292 104.409 55.3509C105.373 54.0657 105.919 52.3983 105.919 50.5991C105.919 45.8505 102.067 41.9983 97.3181 41.9983C95.9687 41.9983 94.6868 42.3196 93.5301 42.8657C93.286 41.9051 92.8394 41.0184 92.2418 40.2441C92.184 42.0979 91.7052 43.9131 90.8346 45.5292C91.3486 47.0714 91.6056 48.7067 91.6056 50.3742C91.6056 58.8786 84.6723 65.8119 76.1711 65.8119C75.7534 65.8119 75.3679 65.7798 74.9502 65.7477L73.408 68.5011C74.5582 68.9991 75.8305 69.2754 77.1639 69.2754C77.6137 69.2754 78.0635 69.2433 78.4811 69.179L82.5872 76.787C82.5004 80.9702 81.4723 94.0015 81.2506 96.7453C78.2659 96.5557 75.1173 96.4208 71.8498 96.3501C71.6378 96.3469 71.4225 96.3437 71.204 96.3372C70.555 96.3276 69.8996 96.318 69.2378 96.3115L67.8562 73.0955L73.5366 62.9557C74.3719 63.1163 75.2394 63.2127 76.1358 63.2127C83.2619 63.2127 89.0064 57.436 89.0064 50.3421C89.0064 48.5461 88.6209 46.8143 87.9462 45.24C89.0064 43.7011 89.6169 41.8376 89.6169 39.8168C89.6169 34.522 85.3149 30.2232 80.0201 30.2232C78.5133 30.2232 77.0996 30.5445 75.8177 31.1838C74.886 27.5276 71.2619 24.6425 67.0884 24.6425C63.0145 24.6425 59.7085 27.367 58.7446 30.8947C57.9093 30.5766 57.0129 30.4159 56.049 30.4159C51.747 30.4159 48.2836 33.9115 48.2836 38.1814C48.2836 39.9774 48.8908 41.6449 49.9189 42.9621C48.1229 44.8545 47.0305 47.3927 47.0305 50.2168C47.0305 56.0545 51.747 60.7742 57.588 60.7742C58.102 60.7742 58.584 60.7421 59.0659 60.6778L63.6538 69.179C63.5414 73.7091 62.4587 91.7461 62.1791 96.3276C61.7454 96.334 61.3117 96.3437 60.8811 96.3501V96.3694C57.8643 96.4433 54.9502 96.5718 52.1807 96.7485C51.9462 93.8151 50.9342 80.9927 50.8506 76.8834L54.9566 69.2786C55.3743 69.3396 55.8241 69.375 56.2739 69.375C57.739 69.375 59.1269 69.0408 60.3574 68.4433L57.588 63.3412C50.3366 63.3412 44.4635 57.436 44.4635 50.2168C44.4635 47.5212 45.2667 44.9509 46.7735 42.7694C46.0378 41.3589 45.6844 39.7846 45.6844 38.1814C45.6844 37.9437 45.694 37.7059 45.7068 37.4714C42.8506 38.1396 40.5952 40.2666 39.9076 42.9621C38.751 42.3838 37.5012 42.0979 36.1197 42.0979C31.3711 42.0979 27.5189 45.9469 27.5189 50.6955C27.5189 52.3983 28.0651 54.0657 29.0289 55.4473C28.4185 56.8577 28.0972 58.3999 28.0972 60.0031C28.0972 66.3581 33.2635 71.5244 39.6185 71.5244C40.4217 71.5244 41.1896 71.428 41.9607 71.2995L47.0627 80.3822L45.7872 97.2754C33.7004 98.5027 25.5944 100.761 25.5944 103.357H107.843C107.843 100.758 99.747 98.5027 87.657 97.2754ZM47.1269 76.273L44.0779 70.6569C45.2024 70.175 46.2595 69.5324 47.1591 68.7324C47.1912 68.7003 47.2233 68.7003 47.2554 68.6682C47.2233 69.8858 47.1591 74.4449 47.1269 76.273ZM50.69 68.122H50.7864C51.3968 68.4433 52.0683 68.7003 52.7751 68.8609L50.7542 72.9027C50.7221 71.7782 50.69 68.8288 50.69 68.122ZM63.6249 64.7003L61.3759 60.2023C62.147 60.0095 62.9181 59.7204 63.5928 59.367H63.6892C63.6892 60.138 63.657 63.4473 63.6249 64.7003ZM67.5446 59.9774C67.6088 60.0095 67.641 60.0095 67.6731 60.0417C68.7012 60.9412 69.8578 61.6481 71.1109 62.1943L67.7052 68.4593C67.641 66.4031 67.6088 61.2947 67.5446 59.9774ZM82.6835 72.9027L80.6627 68.8609C81.3695 68.7003 82.041 68.4433 82.6514 68.122H82.7478C82.7157 68.8288 82.7157 71.7782 82.6835 72.9027ZM86.1823 68.6682C86.2145 68.7003 86.2466 68.7003 86.2787 68.7324C87.1783 69.5324 88.2354 70.175 89.3599 70.6569L86.3109 76.273C86.2787 74.4449 86.2145 69.8858 86.1823 68.6682Z" fill="white"/>
</svg>
