<svg width="56" height="56" viewBox="0 0 56 56" fill="none" xmlns="http://www.w3.org/2000/svg">
<g clip-path="url(#clip0_47_79)">
<path d="M50.093 16.4861C50.115 16.975 50.1261 17.4661 50.1261 17.9594C50.1261 33.0069 38.6717 50.357 17.7297 50.357C11.2989 50.357 5.31291 48.4718 0.273926 45.2409C1.16585 45.3466 2.07103 45.4006 2.99055 45.4006C8.32572 45.4006 13.2347 43.5803 17.1329 40.5256C12.149 40.4342 7.94471 37.1419 6.49559 32.6181C7.19158 32.7514 7.90408 32.823 8.63852 32.823C9.67578 32.823 10.6822 32.6832 11.6381 32.4233C6.42956 31.377 2.50375 26.7753 2.50375 21.2584C2.50375 21.21 2.50375 21.1626 2.50494 21.1153C4.03997 21.9676 5.79526 22.4797 7.66275 22.5391C4.60703 20.4976 2.59737 17.0123 2.59737 13.0613C2.59737 10.9747 3.15781 9.01897 4.13891 7.33743C9.75496 14.2263 18.1436 18.7587 27.6071 19.2344C27.4133 18.4008 27.3119 17.532 27.3119 16.639C27.3119 10.3513 32.4103 5.25293 38.698 5.25293C41.9752 5.25293 44.9328 6.636 47.0096 8.84823C49.604 8.3384 52.0398 7.39032 54.2398 6.08534C53.3897 8.74472 51.586 10.9756 49.234 12.3851C51.5375 12.1098 53.7334 11.4976 55.7749 10.5924C54.2487 12.8753 52.3174 14.8805 50.093 16.4861Z" fill="white"/>
</g>
<defs>
<clipPath id="clip0_47_79">
<rect width="55.6098" height="55.6098" fill="white" transform="translate(0.219482)"/>
</clipPath>
</defs>
</svg>
